<svg width="32" height="32" viewBox="0 0 32 32" fill="none" xmlns="http://www.w3.org/2000/svg">
<path d="M22.8751 11H17.7501L23.4001 1.95003C23.4589 1.85641 23.4901 1.74809 23.4901 1.63753C23.4901 1.52697 23.4589 1.41865 23.4001 1.32503C23.3473 1.23082 23.2714 1.15158 23.1796 1.09473C23.0877 1.03788 22.983 1.00529 22.8751 1.00003H12.8751C12.7318 0.993475 12.5907 1.03743 12.4765 1.12424C12.3623 1.21105 12.2821 1.33519 12.2501 1.47503L8.50009 16.475C8.47471 16.5671 8.47167 16.6639 8.49124 16.7574C8.51081 16.8509 8.55241 16.9384 8.61259 17.0125C8.67269 17.0903 8.75063 17.1525 8.83983 17.1939C8.92903 17.2352 9.02688 17.2545 9.12509 17.25H13.3126L9.75009 30.2125C9.71015 30.3538 9.72225 30.5046 9.78419 30.6377C9.84614 30.7708 9.9538 30.8772 10.0876 30.9375C10.2234 30.9973 10.3756 31.0088 10.5188 30.9702C10.6621 30.9315 10.7878 30.845 10.8751 30.725L23.3751 11.975C23.4379 11.8823 23.4745 11.7744 23.4813 11.6626C23.4881 11.5508 23.4647 11.4392 23.4136 11.3396C23.3625 11.2399 23.2855 11.1558 23.1908 11.0961C23.0961 11.0364 22.987 11.0032 22.8751 11Z" fill="#E66F00"/>
</svg>
