<svg width="32" height="32" viewBox="0 0 32 32" fill="none" xmlns="http://www.w3.org/2000/svg">
<path d="M12.5625 4.75C12.894 4.75 13.212 4.6183 13.4464 4.38388C13.6808 4.14946 13.8125 3.83152 13.8125 3.5V2.25C13.8125 1.91848 13.6808 1.60054 13.4464 1.36612C13.212 1.1317 12.894 1 12.5625 1C12.231 1 11.913 1.1317 11.6786 1.36612C11.4442 1.60054 11.3125 1.91848 11.3125 2.25V3.5C11.3125 3.83152 11.4442 4.14946 11.6786 4.38388C11.913 4.6183 12.231 4.75 12.5625 4.75Z" fill="#E66F00"/>
<path d="M5.13756 6.72495C5.37177 6.95776 5.68858 7.08844 6.01881 7.08844C6.34905 7.08844 6.66586 6.95776 6.90006 6.72495C7.13288 6.49074 7.26355 6.17393 7.26355 5.8437C7.26355 5.51347 7.13288 5.19665 6.90006 4.96245L6.00006 4.07495C5.88386 3.95779 5.74561 3.86479 5.59328 3.80133C5.44096 3.73787 5.27758 3.7052 5.11256 3.7052C4.94755 3.7052 4.78417 3.73787 4.63184 3.80133C4.47952 3.86479 4.34127 3.95779 4.22506 4.07495C3.99225 4.30915 3.86157 4.62597 3.86157 4.9562C3.86157 5.28643 3.99225 5.60325 4.22506 5.83745L5.13756 6.72495Z" fill="#E66F00"/>
<path d="M4.75 12.5625C4.75 12.231 4.6183 11.913 4.38388 11.6786C4.14946 11.4442 3.83152 11.3125 3.5 11.3125H2.25C1.91848 11.3125 1.60054 11.4442 1.36612 11.6786C1.1317 11.913 1 12.231 1 12.5625C1 12.894 1.1317 13.212 1.36612 13.4464C1.60054 13.6808 1.91848 13.8125 2.25 13.8125H3.5C3.83152 13.8125 4.14946 13.6808 4.38388 13.4464C4.6183 13.212 4.75 12.894 4.75 12.5625Z" fill="#E66F00"/>
<path d="M19.75 6.88751C19.9154 6.88683 20.079 6.85333 20.2314 6.78896C20.3837 6.72459 20.5218 6.63062 20.6375 6.51251L21.5125 5.63751C21.6297 5.52131 21.7227 5.38306 21.7862 5.23073C21.8496 5.07841 21.8823 4.91503 21.8823 4.75001C21.8823 4.585 21.8496 4.42162 21.7862 4.26929C21.7227 4.11697 21.6297 3.97872 21.5125 3.86251C21.2783 3.6297 20.9615 3.49902 20.6313 3.49902C20.3011 3.49902 19.9842 3.6297 19.75 3.86251L18.8125 4.75001C18.6328 4.92778 18.5111 5.15588 18.4636 5.40421C18.4162 5.65254 18.4451 5.90943 18.5467 6.14097C18.6482 6.3725 18.8176 6.5678 19.0324 6.70109C19.2473 6.83437 19.4975 6.89937 19.75 6.88751Z" fill="#E66F00"/>
<path d="M28.6125 19.8375C28.5776 19.8084 28.5495 19.7722 28.5301 19.7311C28.5107 19.6901 28.5004 19.6454 28.5 19.6C28.4557 17.5317 27.6799 15.5461 26.3105 13.9955C24.9411 12.4449 23.0665 11.4296 21.0196 11.1299C18.9727 10.8302 16.8858 11.2655 15.1293 12.3584C13.3729 13.4513 12.0604 15.1313 11.425 17.1C11.4087 17.1606 11.3729 17.2141 11.3233 17.2525C11.2736 17.2909 11.2128 17.3119 11.15 17.3125C9.44538 17.5242 7.88174 18.3663 6.76692 19.6732C5.6521 20.98 5.06688 22.6568 5.12645 24.3735C5.18603 26.0902 5.88609 27.7224 7.08882 28.9488C8.29154 30.1752 9.9098 30.907 11.625 31H24.75C26.0494 30.9997 27.3164 30.5944 28.3747 29.8405C29.433 29.0867 30.2301 28.0217 30.655 26.7937C31.0799 25.5658 31.1115 24.236 30.7454 22.9892C30.3794 21.7425 29.6338 20.6408 28.6125 19.8375ZM28.5 24.75C28.5 25.7445 28.1049 26.6984 27.4017 27.4016C26.6984 28.1049 25.7446 28.5 24.75 28.5H11.625C10.4647 28.5 9.3519 28.039 8.53143 27.2186C7.71095 26.3981 7.25002 25.2853 7.25002 24.125C7.25002 22.9647 7.71095 21.8519 8.53143 21.0314C9.3519 20.2109 10.4647 19.75 11.625 19.75H12.25C12.5705 19.7898 12.894 19.704 13.1527 19.5106C13.4113 19.3172 13.5851 19.0312 13.6375 18.7125C13.9502 17.2198 14.7978 15.8929 16.0208 14.9818C17.2438 14.0706 18.7577 13.6381 20.2775 13.7657C21.7972 13.8932 23.2179 14.572 24.2719 15.6742C25.3259 16.7765 25.9405 18.2261 26 19.75V20.2875C25.9678 20.5344 26.0102 20.7853 26.1215 21.008C26.2329 21.2307 26.4082 21.4151 26.625 21.5375C27.19 21.8636 27.6601 22.3315 27.9889 22.8949C28.3177 23.4583 28.4939 24.0977 28.5 24.75Z" fill="#E66F00"/>
<path d="M8.50004 16C8.54405 15.9861 8.58406 15.9618 8.6167 15.9291C8.64933 15.8965 8.67363 15.8565 8.68754 15.8125C8.70833 15.7741 8.71921 15.7311 8.71921 15.6875C8.71921 15.6438 8.70833 15.6009 8.68754 15.5625C8.24932 14.7985 8.02069 13.9323 8.02477 13.0515C8.02885 12.1708 8.26551 11.3068 8.71079 10.5469C9.15608 9.78696 9.79418 9.15816 10.5605 8.7241C11.3269 8.29003 12.1943 8.06611 13.075 8.07497C14.3497 8.07601 15.5738 8.57372 16.4875 9.46247C16.526 9.50103 16.5743 9.52839 16.6271 9.5416C16.68 9.55482 16.7354 9.55339 16.7875 9.53747C17.4822 9.34704 18.194 9.22562 18.9125 9.17497C18.9692 9.17055 19.0236 9.15075 19.0699 9.11771C19.1161 9.08467 19.1525 9.03964 19.175 8.98747C19.2052 8.94093 19.2212 8.88667 19.2212 8.83122C19.2212 8.77578 19.2052 8.72151 19.175 8.67497C18.249 7.38035 16.9351 6.41393 15.4234 5.91551C13.9118 5.41709 12.2807 5.41253 10.7663 5.9025C9.25187 6.39246 7.93259 7.35153 6.99934 8.64095C6.06609 9.93037 5.56726 11.4833 5.57504 13.075C5.57569 14.3218 5.89404 15.5478 6.50004 16.6375C6.5411 16.7096 6.60818 16.7632 6.68754 16.7875C6.72676 16.8054 6.7694 16.8148 6.81254 16.8148C6.85568 16.8148 6.89832 16.8054 6.93754 16.7875C7.43112 16.4741 7.95451 16.2103 8.50004 16Z" fill="#E66F00"/>
</svg>
