<svg width="32" height="32" viewBox="0 0 32 32" fill="none" xmlns="http://www.w3.org/2000/svg">
<path d="M16.0001 24.1466L16.002 24.1466C18.1609 24.1426 20.2302 23.2832 21.7568 21.7567C23.2834 20.2301 24.1428 18.1607 24.1468 16.0018V16C24.1468 14.3887 23.669 12.8136 22.7738 11.4739C21.8786 10.1342 20.6063 9.09004 19.1177 8.47344C17.6291 7.85684 15.9911 7.69551 14.4108 8.00985C12.8305 8.32419 11.3789 9.10008 10.2395 10.2394C9.10021 11.3787 8.32432 12.8303 8.00997 14.4106C7.69563 15.9909 7.85696 17.629 8.47357 19.1176C9.09017 20.6062 10.1343 21.8785 11.4741 22.7737C12.8138 23.6689 14.3888 24.1466 16.0001 24.1466ZM11.1037 8.67196C12.5528 7.70367 14.2565 7.18678 15.9994 7.18665C18.336 7.18999 20.5759 8.11967 22.2282 9.77191C23.8802 11.424 24.8099 13.6636 24.8134 16C24.8134 17.7431 24.2965 19.4471 23.3281 20.8964C22.3597 22.3458 20.9832 23.4754 19.3728 24.1424C17.7624 24.8095 15.9903 24.984 14.2807 24.644C12.5711 24.3039 11.0007 23.4645 9.76814 22.2319C8.53557 20.9994 7.69618 19.429 7.35612 17.7194C7.01605 16.0098 7.19059 14.2377 7.85765 12.6273C8.52471 11.0168 9.65433 9.64038 11.1037 8.67196Z" stroke="#E66F00" stroke-width="2"/>
<path d="M16.2358 3.52904C16.1733 3.59155 16.0885 3.62667 16.0001 3.62667C15.9117 3.62667 15.8269 3.59155 15.7644 3.52904C15.7334 3.49808 15.7089 3.46134 15.6921 3.42089C15.6754 3.38045 15.6667 3.33711 15.6667 3.29333V1.33333C15.6667 1.24493 15.7019 1.16014 15.7644 1.09763C15.8269 1.03512 15.9117 1 16.0001 1C16.0885 1 16.1733 1.03512 16.2358 1.09763C16.2983 1.16014 16.3334 1.24493 16.3334 1.33333V3.29333C16.3334 3.38174 16.2983 3.46652 16.2358 3.52904Z" stroke="#E66F00" stroke-width="2"/>
<path d="M7.04844 7.38732L7.02796 7.3866L7.00748 7.38671C6.96361 7.38697 6.92012 7.37856 6.87951 7.36197C6.84078 7.34615 6.8054 7.32319 6.77519 7.29431L5.40813 5.88781C5.34789 5.81969 5.31611 5.73089 5.3196 5.63981C5.32319 5.54601 5.3639 5.45748 5.43277 5.3937C5.50164 5.32992 5.59302 5.2961 5.68682 5.2997C5.78061 5.30329 5.86914 5.344 5.93293 5.41287L5.94594 5.42692L5.95949 5.44047L7.29282 6.7738L7.30189 6.78287L7.31118 6.7917C7.34396 6.82284 7.37006 6.86032 7.3879 6.90187C7.40573 6.94341 7.41493 6.98815 7.41493 7.03336C7.41493 7.07858 7.40573 7.12332 7.3879 7.16486C7.37006 7.20641 7.34396 7.24389 7.31118 7.27503L7.30305 7.28275L7.2951 7.29065C7.26278 7.32277 7.22421 7.34792 7.18179 7.36454C7.13936 7.38117 7.09398 7.38892 7.04844 7.38732Z" stroke="#E66F00" stroke-width="2"/>
<path d="M1.33333 15.6666H3.29333C3.38174 15.6666 3.46652 15.7017 3.52904 15.7643C3.59155 15.8268 3.62667 15.9116 3.62667 16C3.62667 16.0884 3.59155 16.1731 3.52904 16.2357C3.46652 16.2982 3.38174 16.3333 3.29333 16.3333H1.33333C1.24493 16.3333 1.16014 16.2982 1.09763 16.2357C1.03512 16.1731 1 16.0884 1 16C1 15.9116 1.03512 15.8268 1.09763 15.7643C1.16014 15.7017 1.24493 15.6666 1.33333 15.6666Z" stroke="#E66F00" stroke-width="2"/>
<path d="M5.43747 26.0434L5.43747 26.0434L5.44037 26.0405L6.77371 24.7071C6.83724 24.6436 6.92341 24.6079 7.01327 24.6079C7.10312 24.6079 7.18929 24.6436 7.25283 24.7071C7.31636 24.7707 7.35205 24.8568 7.35205 24.9467C7.35205 25.0366 7.31636 25.1227 7.25283 25.1863L5.92142 26.5177C5.89047 26.5481 5.85388 26.5722 5.81368 26.5886C5.77307 26.6052 5.72958 26.6136 5.68571 26.6134L5.68571 26.6133L5.67415 26.6134C5.63028 26.6136 5.5868 26.6052 5.54618 26.5886C5.50557 26.5721 5.46863 26.5476 5.43748 26.5167L5.43747 26.5167C5.40622 26.4857 5.38142 26.4488 5.3645 26.4082C5.34758 26.3676 5.33887 26.324 5.33887 26.28C5.33887 26.236 5.34758 26.1925 5.3645 26.1518C5.38142 26.1112 5.40622 26.0744 5.43747 26.0434Z" stroke="#E66F00" stroke-width="2"/>
<path d="M15.7644 28.4709C15.8269 28.4084 15.9117 28.3733 16.0001 28.3733C16.0885 28.3733 16.1733 28.4084 16.2358 28.4709C16.2983 28.5334 16.3334 28.6182 16.3334 28.7066V30.6666C16.3334 30.755 16.2983 30.8398 16.2358 30.9023C16.1733 30.9648 16.0885 31 16.0001 31C15.9117 31 15.8269 30.9648 15.7644 30.9023C15.7019 30.8398 15.6667 30.755 15.6667 30.6666V28.7066C15.6667 28.6182 15.7019 28.5334 15.7644 28.4709Z" stroke="#E66F00" stroke-width="2"/>
<path d="M26.2858 26.6534L26.2858 26.6533L26.2742 26.6534C26.2304 26.6536 26.1869 26.6452 26.1463 26.6286C26.1061 26.6122 26.0695 26.5881 26.0385 26.5577L24.7071 25.2262C24.673 25.1922 24.646 25.1517 24.6276 25.1072C24.6091 25.0626 24.5996 25.0149 24.5996 24.9667C24.5996 24.9185 24.6091 24.8707 24.6276 24.8262C24.646 24.7817 24.673 24.7412 24.7071 24.7071C24.7412 24.673 24.7817 24.646 24.8262 24.6276C24.8707 24.6091 24.9185 24.5996 24.9667 24.5996C25.0149 24.5996 25.0626 24.6091 25.1072 24.6276C25.1485 24.6447 25.1864 24.6692 25.2189 24.7L26.4987 26.0589L26.5104 26.0713L26.5225 26.0834C26.5537 26.1143 26.5785 26.1512 26.5954 26.1918C26.6124 26.2324 26.6211 26.276 26.6211 26.32C26.6211 26.364 26.6124 26.4076 26.5954 26.4482C26.5785 26.4888 26.5537 26.5257 26.5225 26.5567L26.5225 26.5567C26.4913 26.5876 26.4544 26.612 26.4138 26.6286C26.3732 26.6452 26.3297 26.6536 26.2858 26.6534Z" stroke="#E66F00" stroke-width="2"/>
<path d="M28.7066 15.6666H30.6666C30.755 15.6666 30.8398 15.7017 30.9023 15.7643C30.9648 15.8268 31 15.9116 31 16C31 16.0884 30.9648 16.1732 30.9023 16.2357C30.8398 16.2982 30.755 16.3333 30.6666 16.3333H28.7066C28.6182 16.3333 28.5334 16.2982 28.4709 16.2357C28.4084 16.1732 28.3733 16.0884 28.3733 16C28.3733 15.9116 28.4084 15.8268 28.4709 15.7643C28.5334 15.7017 28.6182 15.6666 28.7066 15.6666Z" stroke="#E66F00" stroke-width="2"/>
<path d="M25.0234 7.34735L24.9725 7.34549L24.9217 7.3488C24.8768 7.35172 24.8319 7.34555 24.7895 7.33066C24.7568 7.31917 24.7261 7.30268 24.6986 7.28182C24.6776 7.25559 24.6606 7.22629 24.6483 7.19488C24.6322 7.1539 24.6244 7.11015 24.6253 7.06613C24.6262 7.02212 24.6359 6.97874 24.6537 6.93848C24.6715 6.89822 24.697 6.86188 24.7289 6.83155L24.7382 6.82279L24.7472 6.81379L26.0805 5.48045C26.112 5.44899 26.1493 5.42404 26.1904 5.40701C26.2315 5.38999 26.2756 5.38123 26.3201 5.38123C26.3646 5.38123 26.4086 5.38999 26.4497 5.40701C26.4908 5.42404 26.5282 5.44899 26.5596 5.48045C26.5911 5.51191 26.616 5.54926 26.6331 5.59037C26.6501 5.63147 26.6589 5.67553 26.6589 5.72001C26.6589 5.7645 26.6501 5.80856 26.6331 5.84966C26.616 5.89077 26.5911 5.92812 26.5596 5.95957L25.2483 7.2709C25.1854 7.32302 25.1054 7.35036 25.0234 7.34735Z" stroke="#E66F00" stroke-width="2"/>
</svg>
